<?xml version="1.0" encoding="UTF-8"?>
<svg width="24px" height="24px" viewBox="0 0 24 24" version="1.1" xmlns="http://www.w3.org/2000/svg" xmlns:xlink="http://www.w3.org/1999/xlink">
    <title>Brand</title>
    <desc>Artist palette</desc>
    <defs></defs>
    <g stroke="none" stroke-width="1" fill="none" fill-rule="evenodd">
        <g transform="translate(-1.000000, 0.000000)" fill-rule="nonzero" fill="#5589a7">
            <path d="M20.313,12 C21.438,12 22.313,11.125 22.313,10 C22.313,8.875 21.438,8 20.313,8 C19.188,8 18.313,8.875 18.313,10 C18.313,11.125 19.188,12 20.313,12 Z M16.313,6.688 C17.438,6.688 18.313,5.813 18.313,4.688 C18.313,3.563 17.438,2.688 16.313,2.688 C15.188,2.688 14.313,3.563 14.313,4.688 C14.313,5.813 15.188,6.688 16.313,6.688 Z M9.688,6.688 C10.813,6.688 11.688,5.813 11.688,4.688 C11.688,3.563 10.813,2.688 9.688,2.688 C8.563,2.688 7.688,3.563 7.688,4.688 C7.688,5.813 8.563,6.688 9.688,6.688 Z M5.688,12 C6.813,12 7.688,11.125 7.688,10 C7.688,8.875 6.813,8 5.688,8 C4.563,8 3.688,8.875 3.688,10 C3.688,11.125 4.563,12 5.688,12 Z M13,0 C19.625,0 25,4.813 25,10.688 C25,14.376 22,17.313 18.312,17.313 L15.999,17.313 C14.874,17.313 13.999,18.188 13.999,19.313 C13.999,19.813 14.187,20.251 14.499,20.626 C14.811,21.001 14.999,21.501 14.999,22.001 C14.999,23.126 14.124,24.001 12.999,24.001 C6.374,24.001 0.999,18.626 0.999,12.001 C0.999,5.376 6.374,0.001 12.999,0.001 L13,0 Z"></path>
        </g>
    </g>
</svg>